<svg class="select-icon" viewBox="0 0 120 100">
		<path fill-rule="evenodd" d="m-661 0h112v102h-112zm4 98h104v-74h-104zm0-94v16h104v-16z"/>
		<path d="m-647 10h-4v4h4z"/>
		<path d="m-575 10h-4v4h4z"/>
		<path d="m-567 10h-4v4h4z"/>
		<path d="m-559 10h-4v4h4z"/>
		<path fill-rule="evenodd" d="m-440 0h112v102h-112zm4 98h104v-74h-104zm0-94v16h104v-16z"/>
		<path d="m-410 10h-4v4h4z"/>
		<path d="m-418 10h-4v4h4z"/>
		<path d="m-426 10h-4v4h4z"/>
		<path fill-rule="evenodd" d="m-662 444h112v102h-112zm4 98h78v-94h-78zm104-94h-22v18h22zm-22 94h22v-18h-22zm22-20v-54h-22v54z"/>
		<path fill-rule="evenodd" d="m-218 12h112v30h-112zm4 26h104v-22h-104z"/>
		<path d="m-208 23h3v8h-3v2h8v-2h-3v-8h3v-2h-8z"/>
		<path fill-rule="evenodd" d="m-218 59h112v30h-112zm4 26h104v-22h-104z"/>
		<path d="m-208 80h10v-2h-10z"/>
		<path fill-rule="evenodd" d="m-218 732h112v30h-112zm4 26h104v-22h-104z"/>
		<path fill-rule="evenodd" d="m-218 274h112v30h-112zm108 4h-22v22h22zm-104 22h78v-22h-78z"/>
		<path fill-rule="evenodd" d="m-217 674h110v44h-110zm4 40h102v-36h-102z"/>
		<path d="m101 29.9l5.7-5.7-1.4-1.4-4.3 4.3-4.3-4.3-1.4 1.4z"/>
		<path fill-rule="evenodd" d="m-218 227h112v30h-112zm108 4h-22v22h22zm-104 22h78v-22h-78z"/>
		<path d="m-121 247.6l-4.3-4.3-1.4 1.4 5.7 5.7 5.7-5.7-1.4-1.4z"/>
		<path d="m-121 236.4l4.3 4.3 1.4-1.4-5.7-5.7-5.7 5.7 1.4 1.4z"/>
		<path d="m90.7 326.2l5.7-5.7-5.7-5.7-1.4 1.4 3.3 3.3h-84.2l3.3-3.3-1.4-1.4-5.7 5.7 5.7 5.7 1.4-1.4-3.3-3.3h84.2l-3.3 3.3z"/>
		<path d="m-569.3 459.7l4.3-4.3 4.3 4.3 1.4-1.4-5.7-5.7-5.7 5.7z"/>
		<path d="m-565 534.6l-4.3-4.3-1.4 1.4 5.7 5.7 5.7-5.7-1.4-1.4z"/>
		<path fill-rule="evenodd" d="m113 45h2v47h-110v-47h2v19h106zm0 21h-106v24h106z"/>
		<path fill-rule="evenodd" d="m4 41v-30h112v30zm108-26h-22v22h22zm-104 22h78v-22h-78z"/>
		<path fill-rule="evenodd" d="m-634 246h-26v-26h26zm-4-22h-18v18h18z"/>
		<path d="m-641.3 230.5l-1.4-1.4-5.8 5.7-2.8-2.8-1.4 1.4 4.2 4.2z"/>
		<path d="m-648.5 314.8l-2.8-2.8-1.4 1.4 4.2 4.2 7.2-7.1-1.4-1.4z"/>
		<path d="m-552 231h-70v4h70z"/>
		<path fill-rule="evenodd" d="m-660 260h26v26h-26zm4 22h18v-18h-18z"/>
		<path d="m-622 275h70v-4h-70z"/>
		<path fill-rule="evenodd" d="m-660 300h26v26h-26zm4 22h18v-18h-18z"/>
		<path d="m-622 315h70v-4h-70z"/>
		<path d="m-331 231h-70v4h70z"/>
		<path d="m-401 275h70v-4h-70z"/>
		<path d="m-401 315h70v-4h-70z"/>
		<path fill-rule="evenodd" d="m-439 233c0-7.2 5.8-13 13-13 7.2 0 13 5.8 13 13 0 7.2-5.8 13-13 13-7.2 0-13-5.8-13-13zm4 0c0 5 4 9 9 9 5 0 9-4 9-9 0-5-4-9-9-9-5 0-9 4-9 9z"/>
		<path d="m-426 236c1.7 0 3-1.3 3-3 0-1.7-1.3-3-3-3-1.7 0-3 1.3-3 3 0 1.7 1.3 3 3 3z"/>
		<path d="m-204 750c1.7 0 3-1.3 3-3 0-1.7-1.3-3-3-3-1.7 0-3 1.3-3 3 0 1.7 1.3 3 3 3z"/>
		<path d="m-192 750c1.7 0 3-1.3 3-3 0-1.7-1.3-3-3-3-1.7 0-3 1.3-3 3 0 1.7 1.3 3 3 3z"/>
		<path d="m-180 750c1.7 0 3-1.3 3-3 0-1.7-1.3-3-3-3-1.7 0-3 1.3-3 3 0 1.7 1.3 3 3 3z"/>
		<path d="m-168 750c1.7 0 3-1.3 3-3 0-1.7-1.3-3-3-3-1.7 0-3 1.3-3 3 0 1.7 1.3 3 3 3z"/>
		<path d="m-156 750c1.7 0 3-1.3 3-3 0-1.7-1.3-3-3-3-1.7 0-3 1.3-3 3 0 1.7 1.3 3 3 3z"/>
		<path fill-rule="evenodd" d="m-439 273c0-7.2 5.8-13 13-13 7.2 0 13 5.8 13 13 0 7.2-5.8 13-13 13-7.2 0-13-5.8-13-13zm4 0c0 5 4 9 9 9 5 0 9-4 9-9 0-5-4-9-9-9-5 0-9 4-9 9z"/>
		<path fill-rule="evenodd" d="m-439 313c0-7.2 5.8-13 13-13 7.2 0 13 5.8 13 13 0 7.2-5.8 13-13 13-7.2 0-13-5.8-13-13zm4 0c0 5 4 9 9 9 5 0 9-4 9-9 0-5-4-9-9-9-5 0-9 4-9 9z"/>
		<path fill-rule="evenodd" d="m-127.3 282.7c1.1-1.2 2.6-1.8 4.2-1.8 1.6 0 3.1 0.6 4.2 1.8 2.1 2.1 2.3 5.3 0.7 7.7l5 5c0.4 0.4 0.4 1 0 1.4q-0.3 0.3-0.7 0.3-0.4 0-0.7-0.3l-5-5c-1 0.7-2.2 1.1-3.5 1.1-1.6 0-3.1-0.6-4.2-1.8-2.4-2.3-2.4-6.1 0-8.4zm1.4 7c0.7 0.8 1.7 1.2 2.8 1.2 1.1 0 2.1-0.4 2.8-1.2 1.6-1.5 1.6-4.1 0-5.6-0.7-0.8-1.7-1.2-2.8-1.2-1.1 0-2.1 0.4-2.8 1.2-1.6 1.5-1.6 4.1 0 5.6z"/>
		<path fill-rule="evenodd" d="m8 665h104v102h-104zm4 98h12v-16h-12zm0-94v20h96v-20zm14 24v16h12v-16zm43 34h10l-5-6.4zm3.7-8l-4.7-6.1v12.2zm7.2 6.1v-12.2l-4.7 6.1zm-1.1-14.1h-9.9l5 6.4zm-13 0h-12v16h12zm-14 0h-12v16h12zm-12 18v16h12v-16zm14 16h12v-16h-12zm14 0h12v-16h-12zm14 0h12v-16h-12zm12-18v-16h-12v16zm0-18v-16h-12v16zm-14-16h-12v16h12zm-14 0h-12v16h12zm-14 0h-12v16h12zm-26 18v16h12v-16zm0 18v16h12v-16zm0 18v16h12v-16zm14 16h12v-16h-12zm14 0h12v-16h-12zm14 0h12v-16h-12zm14 0h12v-16h-12zm14 0h12v-16h-12zm12-18v-16h-12v16zm0-18v-16h-12v16zm0-18v-16h-12v16zm-96-16v16h12v-16zm0 18v16h12v-16zm0 18v16h12v-16z"/>
		<path fill-rule="evenodd" d="m4 444h112v102h-112zm4 98h78v-94h-78zm104-94h-22v18h22zm-22 94h22v-18h-22zm22-20v-54h-22v54z"/>
		<path d="m96.7 459.7l4.3-4.3 4.3 4.3 1.4-1.4-5.7-5.7-5.7 5.7z"/>
		<path d="m101 534.6l-4.3-4.3-1.4 1.4 5.7 5.7 5.7-5.7-1.4-1.4z"/>
		<path fill-rule="evenodd" d="m-440 444h112v102h-112zm4 98h18v-22h-18zm0-94v68h104v-68zm20 72v22h64v-22zm66 22h18v-22h-18z"/>
		<path d="m-343.7 526.7l4.3 4.3-4.3 4.3 1.4 1.4 5.7-5.7-5.7-5.7z"/>
		<path d="m-424.3 526.7l-1.4-1.4-5.7 5.7 5.7 5.7 1.4-1.4-4.3-4.3z"/>
		<path fill-rule="evenodd" d="m-440 670h112v92h-112zm4 88h104v-84h-104z"/>
		<path d="m-413 746h77v-2h-77z"/>
		<path fill-rule="evenodd" d="m97 309h-93v-87h93zm-89-4h85v-79h-85z"/>
		<path fill-rule="evenodd" d="m-218 444h112v102h-112zm4 98h18v-22h-18zm104-94h-22v18h22zm-84 72v22h39v-22zm41 22h19v-22h-19zm21 0h22v-22h-22zm22-24v-19h-22v19zm0-21v-29h-22v29zm-26-49h-78v68h78z"/>
		<path d="m-125.3 459.7l4.3-4.3 4.3 4.3 1.4-1.4-5.7-5.7-5.7 5.7z"/>
		<path d="m-116.7 505.3l-4.3 4.3-4.3-4.3-1.4 1.4 5.7 5.7 5.7-5.7z"/>
		<path d="m-145.3 525.3l-1.4 1.4 4.3 4.3-4.3 4.3 1.4 1.4 5.7-5.7z"/>
		<path d="m-202.3 526.7l-1.4-1.4-5.7 5.7 5.7 5.7 1.4-1.4-4.3-4.3z"/>
		<path d="m18 461v2h58v-2z"/>
		<path d="m18 479h58v-2h-58z"/>
		<path d="m18 495h58v-2h-58z"/>
		<path d="m18 511h58v-2h-58z"/>
		<path d="m18 527h58v-2h-58z"/>
		<path d="m74.4 303l16.6-16.6v-2.8l-19.4 19.4z"/>
		<path d="m85.4 303l5.6-5.6v-2.8l-8.4 8.4z"/>
		<path d="m104.2 301.3l-1.4 1.4 5.7 5.7 5.7-5.7-1.4-1.4-3.3 3.3v-78.2l3.3 3.3 1.4-1.4-5.7-5.7-5.7 5.7 1.4 1.4 3.3-3.3v78.2z"/>
		<path fill-rule="evenodd" d="m-661 670h107v92h-107zm4 88h99v-84h-99z"/>
		<path fill-rule="evenodd" d="m-601.4 695.9c0-6.5 5.4-11.9 11.9-11.9 6.6 0 11.9 5.4 11.9 11.9 0 6.6-5.3 11.9-11.9 11.9-6.5 0-11.9-5.3-11.9-11.9zm2 0c0 5.5 4.5 9.9 9.9 9.9 5.5 0 9.9-4.4 9.9-9.9 0-5.4-4.4-9.9-9.9-9.9-5.4 0-9.9 4.5-9.9 9.9z"/>
		<path fill-rule="evenodd" d="m-590.1 719.9l24.1 30.1h-82.8l25.9-40 18.5 27.9zm0 3.2l-13.1 16.6 4.2 6.3h-2.4l-21.4-32.3-22.3 34.3h75z"/>
		<path fill-rule="evenodd" d="m-366.8 708.5l-33.2 16.6v-33.2zm-31.2 13.4l26.7-13.4-26.7-13.4z"/>
		<path d="m-417 740h-2v4h-13v2h13v4h2z"/>
		<path fill-rule="evenodd" d="m20.7 679c0-2.2 1.8-4 4-4 2.2 0 4 1.8 4 4 0 2.2-1.8 4-4 4-2.2 0-4-1.8-4-4zm2 0c0 1.1 0.9 2 2 2 1.1 0 2-0.9 2-2 0-1.1-0.9-2-2-2-1.1 0-2 0.9-2 2z"/>
		<path fill-rule="evenodd" d="m91.3 679c0-2.2 1.8-4 4-4 2.2 0 4 1.8 4 4 0 2.2-1.8 4-4 4-2.2 0-4-1.8-4-4zm2 0c0 1.1 0.9 2 2 2 1.1 0 2-0.9 2-2 0-1.1-0.9-2-2-2-1.1 0-2 0.9-2 2z"/>
		<path fill-rule="evenodd" d="m-167.6 685l1.6 1.6v18.8l-1.6 1.6h-7.8l-1.6-1.6v-18.8l1.6-1.6zm-0.4 2.4l-0.4-0.4h-6.2l-0.4 0.4v17.2l0.4 0.4h6.2l0.4-0.4z"/>
		<path d="m-155.9 695h-2.1v-10h-2v22h2v-10h2.1l5 10h2.3l-5.5-11 5.5-11h-2.3z"/>
</svg>