<svg width="50" height="50" viewBox="0 0 50 50" fill="none" xmlns="http://www.w3.org/2000/svg">
<g clip-path="url(#clip0_301_6)">
<rect width="50" height="50" fill="#ADADAD"/>
<path d="M24.9375 38.125C26.6465 38.125 28.0137 36.7578 28.0137 35H21.8125C21.8125 36.7578 23.1797 38.125 24.9375 38.125ZM35.4355 30.8496C34.5078 29.8242 32.7012 28.3105 32.7012 23.2812C32.7012 19.5215 30.0645 16.4941 26.4512 15.7129V14.6875C26.4512 13.8574 25.7676 13.125 24.9375 13.125C24.0586 13.125 23.375 13.8574 23.375 14.6875V15.7129C19.7617 16.4941 17.125 19.5215 17.125 23.2812C17.125 28.3105 15.3184 29.8242 14.3906 30.8496C14.0977 31.1426 13.9512 31.5332 14 31.875C14 32.7051 14.5859 33.4375 15.5625 33.4375H34.2637C35.2402 33.4375 35.8262 32.7051 35.875 31.875C35.875 31.5332 35.7285 31.1426 35.4355 30.8496Z" fill="white"/>
</g>
<defs>
<clipPath id="clip0_301_6">
<rect width="50" height="50" fill="white"/>
</clipPath>
</defs>
</svg>
